<svg width="191" height="64" viewBox="0 0 191 64" fill="none" xmlns="http://www.w3.org/2000/svg">
<path d="M18.52 3L7.05525 3C0 3 0 9.13503 0 9.13503V41.5949C0 41.5949 -4.20526e-07 46.8376 5.95287 47.0607C10.298 47.2235 17.0869 47.0607 17.0869 47.0607L25.465 60L53.7963 32.225L55.3396 40.7025C55.3396 40.7025 55.5601 42.0102 57.4342 41.5949C59.3082 41.1796 58.9775 39.8102 58.9775 39.8102L57.5995 33.3405C57.5995 33.3405 56.7017 27.2968 56.2215 26.8708C55.7501 26.4525 49.497 26.09 49.497 26.09L43.4339 25.6438C43.4339 25.6438 41.6701 25.6438 41.6701 27.5401C41.6701 28.9902 43.4339 29.2133 43.4339 29.2133L50.9301 30.1057L26.347 54.1996L18.961 43.6027H5.95287C3.30715 43.6027 3.30715 41.5949 3.30715 41.5949V9.13503C3.30715 9.13503 3.30715 6.56947 5.73239 6.56947H18.52C18.52 6.56947 20.0634 6.56947 20.0634 4.89628C20.0634 3 18.52 3 18.52 3Z" fill="#010219"/>
<path d="M13.1184 28.6556V34.9022C13.1184 35.8878 12.3287 36.6869 11.3545 36.6869C10.3804 36.6869 9.59073 35.8878 9.59073 34.9022V28.6556C9.59073 27.6699 10.3804 26.8708 11.3545 26.8708C12.3287 26.8708 13.1184 27.6699 13.1184 28.6556Z" fill="#010219"/>
<path d="M21.276 21.9628V34.9022C21.276 35.8878 20.4863 36.6869 19.5122 36.6869C18.5381 36.6869 17.7484 35.8878 17.7484 34.9022V21.9628C17.7484 20.9771 18.5381 20.1781 19.5122 20.1781C20.4863 20.1781 21.276 20.9771 21.276 21.9628Z" fill="#010219"/>
<path d="M29.4336 15.2701V34.9022C29.4336 35.8878 28.6439 36.6869 27.6698 36.6869C26.6957 36.6869 25.906 35.8878 25.906 34.9022V15.2701C25.906 14.2844 26.6957 13.4853 27.6698 13.4853C28.6439 13.4853 29.4336 14.2844 29.4336 15.2701Z" fill="#010219"/>
<path d="M37.8117 10.1389V34.9022C37.8117 35.8878 37.0221 36.6869 36.0479 36.6869C35.0738 36.6869 34.2841 35.8878 34.2841 34.9022V10.1389C34.2841 9.15326 35.0738 8.35421 36.0479 8.35421C37.0221 8.35421 37.8117 9.15326 37.8117 10.1389Z" fill="#010219"/>
<path d="M74.54 5C75.94 5 77.1933 5.3 78.3 5.9C79.4067 6.48667 80.2733 7.31333 80.9 8.38C81.5267 9.44667 81.84 10.6533 81.84 12C81.84 13.3467 81.52 14.5533 80.88 15.62C80.2533 16.6733 79.38 17.5 78.26 18.1C77.14 18.7 75.8667 19 74.44 19H68.72V5H74.54ZM74.6 16.64C75.4533 16.64 76.22 16.4467 76.9 16.06C77.5933 15.66 78.1333 15.1133 78.52 14.42C78.9067 13.7133 79.1 12.9133 79.1 12.02C79.1 11.1267 78.9 10.3267 78.5 9.62C78.1 8.9 77.5467 8.34667 76.84 7.96C76.1467 7.56 75.3667 7.36 74.5 7.36H71.4V16.64H74.6ZM86.6888 8.3V19H84.0888V8.3H86.6888ZM85.3688 3.7C85.7954 3.7 86.1488 3.84667 86.4288 4.14C86.7088 4.43333 86.8488 4.80667 86.8488 5.26C86.8488 5.7 86.7088 6.06667 86.4288 6.36C86.1488 6.65333 85.7954 6.8 85.3688 6.8C84.9554 6.8 84.6088 6.65333 84.3288 6.36C84.0488 6.06667 83.9088 5.7 83.9088 5.26C83.9088 4.80667 84.0421 4.43333 84.3088 4.14C84.5888 3.84667 84.9421 3.7 85.3688 3.7ZM96.2491 11.2C95.7291 10.8933 95.1891 10.6533 94.6291 10.48C94.0824 10.3067 93.5757 10.22 93.1091 10.22C92.6691 10.22 92.3157 10.3 92.0491 10.46C91.7957 10.6067 91.6691 10.84 91.6691 11.16C91.6691 11.4933 91.8291 11.7533 92.1491 11.94C92.4824 12.1133 93.0024 12.3 93.7091 12.5C94.4557 12.7267 95.0691 12.9533 95.5491 13.18C96.0291 13.3933 96.4424 13.72 96.7891 14.16C97.1491 14.5867 97.3291 15.1533 97.3291 15.86C97.3291 16.9 96.9291 17.7 96.1291 18.26C95.3291 18.82 94.3224 19.1 93.1091 19.1C92.2824 19.1 91.4757 18.9733 90.6891 18.72C89.9024 18.4533 89.2357 18.08 88.6891 17.6L89.5891 15.78C90.0691 16.1933 90.6424 16.52 91.3091 16.76C91.9757 16.9867 92.6091 17.1 93.2091 17.1C93.6891 17.1 94.0691 17.02 94.3491 16.86C94.6424 16.6867 94.7891 16.4333 94.7891 16.1C94.7891 15.7267 94.6224 15.4467 94.2891 15.26C93.9557 15.0733 93.4157 14.8667 92.6691 14.64C91.9491 14.4267 91.3624 14.22 90.9091 14.02C90.4557 13.8067 90.0624 13.4933 89.7291 13.08C89.3957 12.6533 89.2291 12.1 89.2291 11.42C89.2291 10.3667 89.6091 9.56667 90.3691 9.02C91.1424 8.46 92.1091 8.18 93.2691 8.18C93.9757 8.18 94.6691 8.28 95.3491 8.48C96.0424 8.68 96.6557 8.96 97.1891 9.32L96.2491 11.2ZM105.898 11.2C105.378 10.8933 104.838 10.6533 104.278 10.48C103.731 10.3067 103.224 10.22 102.758 10.22C102.318 10.22 101.964 10.3 101.698 10.46C101.444 10.6067 101.318 10.84 101.318 11.16C101.318 11.4933 101.478 11.7533 101.798 11.94C102.131 12.1133 102.651 12.3 103.358 12.5C104.104 12.7267 104.718 12.9533 105.198 13.18C105.678 13.3933 106.091 13.72 106.438 14.16C106.798 14.5867 106.978 15.1533 106.978 15.86C106.978 16.9 106.578 17.7 105.778 18.26C104.978 18.82 103.971 19.1 102.758 19.1C101.931 19.1 101.124 18.9733 100.338 18.72C99.5508 18.4533 98.8842 18.08 98.3375 17.6L99.2375 15.78C99.7175 16.1933 100.291 16.52 100.958 16.76C101.624 16.9867 102.258 17.1 102.858 17.1C103.338 17.1 103.718 17.02 103.998 16.86C104.291 16.6867 104.438 16.4333 104.438 16.1C104.438 15.7267 104.271 15.4467 103.938 15.26C103.604 15.0733 103.064 14.8667 102.318 14.64C101.598 14.4267 101.011 14.22 100.558 14.02C100.104 13.8067 99.7108 13.4933 99.3775 13.08C99.0442 12.6533 98.8775 12.1 98.8775 11.42C98.8775 10.3667 99.2575 9.56667 100.018 9.02C100.791 8.46 101.758 8.18 102.918 8.18C103.624 8.18 104.318 8.28 104.998 8.48C105.691 8.68 106.304 8.96 106.838 9.32L105.898 11.2ZM113.666 8.22C115.373 8.22 116.653 8.70667 117.506 9.68C118.373 10.6533 118.806 12.02 118.806 13.78C118.806 14.1267 118.799 14.3867 118.786 14.56H110.886C111.059 15.32 111.413 15.92 111.946 16.36C112.493 16.7867 113.159 17 113.946 17C114.493 17 115.013 16.9 115.506 16.7C116.013 16.4867 116.453 16.1867 116.826 15.8L118.226 17.26C117.693 17.8467 117.039 18.3 116.266 18.62C115.506 18.94 114.659 19.1 113.726 19.1C112.633 19.1 111.666 18.8733 110.826 18.42C109.999 17.9667 109.359 17.3333 108.906 16.52C108.453 15.6933 108.226 14.7467 108.226 13.68C108.226 12.6133 108.453 11.6667 108.906 10.84C109.373 10.0133 110.019 9.37333 110.846 8.92C111.673 8.45333 112.613 8.22 113.666 8.22ZM116.426 12.82C116.399 12.0333 116.139 11.4067 115.646 10.94C115.153 10.4733 114.499 10.24 113.686 10.24C112.926 10.24 112.286 10.4733 111.766 10.94C111.259 11.3933 110.946 12.02 110.826 12.82H116.426ZM128.402 11.68C127.682 10.8933 126.749 10.5 125.602 10.5C124.735 10.5 124.029 10.7933 123.482 11.38C122.949 11.9667 122.682 12.7267 122.682 13.66C122.682 14.62 122.949 15.3933 123.482 15.98C124.029 16.5667 124.735 16.86 125.602 16.86C126.882 16.86 127.842 16.44 128.482 15.6L130.102 16.94C129.622 17.6333 128.989 18.1667 128.202 18.54C127.415 18.9133 126.502 19.1 125.462 19.1C124.409 19.1 123.469 18.8733 122.642 18.42C121.829 17.9667 121.195 17.3333 120.742 16.52C120.289 15.6933 120.062 14.7467 120.062 13.68C120.062 12.6 120.289 11.6467 120.742 10.82C121.209 9.99333 121.849 9.35333 122.662 8.9C123.489 8.44667 124.435 8.22 125.502 8.22C126.475 8.22 127.342 8.39333 128.102 8.74C128.875 9.07333 129.502 9.55333 129.982 10.18L128.402 11.68ZM138.28 19V17.7C137.907 18.1667 137.427 18.52 136.84 18.76C136.253 19 135.58 19.12 134.82 19.12C134.073 19.12 133.413 18.98 132.84 18.7C132.28 18.4067 131.847 18.0067 131.54 17.5C131.233 16.9933 131.08 16.4267 131.08 15.8C131.08 14.8 131.433 14.02 132.14 13.46C132.847 12.8867 133.847 12.5933 135.14 12.58H138.26V12.3C138.26 11.6733 138.053 11.1867 137.64 10.84C137.227 10.4933 136.627 10.32 135.84 10.32C134.827 10.32 133.767 10.6533 132.66 11.32L131.72 9.52C132.56 9.05333 133.32 8.72 134 8.52C134.693 8.30667 135.5 8.2 136.42 8.2C137.807 8.2 138.88 8.53333 139.64 9.2C140.413 9.86667 140.807 10.8 140.82 12L140.84 19H138.28ZM135.44 17.12C136.187 17.12 136.827 16.9467 137.36 16.6C137.893 16.24 138.193 15.8 138.26 15.28V14.32H135.56C134.867 14.32 134.353 14.4267 134.02 14.64C133.7 14.84 133.54 15.1733 133.54 15.64C133.54 16.0933 133.707 16.4533 134.04 16.72C134.387 16.9867 134.853 17.12 135.44 17.12ZM154.077 4.16V19H151.477V17.28C151.09 17.88 150.59 18.34 149.977 18.66C149.377 18.9667 148.677 19.12 147.877 19.12C146.863 19.12 145.97 18.8933 145.197 18.44C144.437 17.9733 143.843 17.3267 143.417 16.5C142.99 15.66 142.777 14.7 142.777 13.62C142.777 12.5533 142.983 11.6133 143.397 10.8C143.823 9.97333 144.417 9.33333 145.177 8.88C145.95 8.42667 146.83 8.2 147.817 8.2C148.63 8.2 149.343 8.36 149.957 8.68C150.57 9 151.077 9.46 151.477 10.06V4.16H154.077ZM148.437 16.94C149.33 16.94 150.057 16.64 150.617 16.04C151.19 15.4267 151.477 14.64 151.477 13.68C151.477 12.72 151.19 11.94 150.617 11.34C150.057 10.7267 149.33 10.42 148.437 10.42C147.543 10.42 146.817 10.7267 146.257 11.34C145.697 11.94 145.41 12.72 145.397 13.68C145.41 14.64 145.697 15.4267 146.257 16.04C146.817 16.64 147.543 16.94 148.437 16.94ZM162.089 8.22C163.196 8.22 164.169 8.44667 165.009 8.9C165.862 9.35333 166.522 9.99333 166.989 10.82C167.469 11.6333 167.709 12.5733 167.709 13.64C167.709 14.72 167.469 15.6733 166.989 16.5C166.522 17.3267 165.862 17.9667 165.009 18.42C164.169 18.8733 163.196 19.1 162.089 19.1C160.969 19.1 159.982 18.8733 159.129 18.42C158.276 17.9667 157.609 17.3267 157.129 16.5C156.662 15.6733 156.429 14.72 156.429 13.64C156.429 12.5733 156.662 11.6333 157.129 10.82C157.609 9.99333 158.276 9.35333 159.129 8.9C159.982 8.44667 160.969 8.22 162.089 8.22ZM162.089 10.44C161.182 10.44 160.449 10.74 159.889 11.34C159.329 11.94 159.049 12.72 159.049 13.68C159.049 14.64 159.329 15.42 159.889 16.02C160.449 16.62 161.182 16.92 162.089 16.92C162.969 16.92 163.689 16.62 164.249 16.02C164.809 15.42 165.089 14.64 165.089 13.68C165.089 12.72 164.809 11.94 164.249 11.34C163.689 10.74 162.969 10.44 162.089 10.44ZM172.568 10.36C172.928 9.66667 173.414 9.14 174.028 8.78C174.654 8.40667 175.381 8.21333 176.208 8.2V10.72C175.101 10.6533 174.214 10.9133 173.548 11.5C172.894 12.0733 172.568 12.8533 172.568 13.84V19H169.968V8.3H172.568V10.36ZM78.94 28.16V43H76.34V41.28C75.9533 41.88 75.4533 42.34 74.84 42.66C74.24 42.9667 73.54 43.12 72.74 43.12C71.7267 43.12 70.8333 42.8933 70.06 42.44C69.3 41.9733 68.7067 41.3267 68.28 40.5C67.8533 39.66 67.64 38.7 67.64 37.62C67.64 36.5533 67.8467 35.6133 68.26 34.8C68.6867 33.9733 69.28 33.3333 70.04 32.88C70.8133 32.4267 71.6933 32.2 72.68 32.2C73.4933 32.2 74.2067 32.36 74.82 32.68C75.4333 33 75.94 33.46 76.34 34.06V28.16H78.94ZM73.3 40.94C74.1933 40.94 74.92 40.64 75.48 40.04C76.0533 39.4267 76.34 38.64 76.34 37.68C76.34 36.72 76.0533 35.94 75.48 35.34C74.92 34.7267 74.1933 34.42 73.3 34.42C72.4067 34.42 71.68 34.7267 71.12 35.34C70.56 35.94 70.2733 36.72 70.26 37.68C70.2733 38.64 70.56 39.4267 71.12 40.04C71.68 40.64 72.4067 40.94 73.3 40.94ZM86.7323 32.22C88.439 32.22 89.719 32.7067 90.5723 33.68C91.439 34.6533 91.8723 36.02 91.8723 37.78C91.8723 38.1267 91.8657 38.3867 91.8523 38.56H83.9523C84.1257 39.32 84.479 39.92 85.0123 40.36C85.559 40.7867 86.2257 41 87.0123 41C87.559 41 88.079 40.9 88.5723 40.7C89.079 40.4867 89.519 40.1867 89.8923 39.8L91.2923 41.26C90.759 41.8467 90.1057 42.3 89.3323 42.62C88.5723 42.94 87.7257 43.1 86.7923 43.1C85.699 43.1 84.7323 42.8733 83.8923 42.42C83.0657 41.9667 82.4257 41.3333 81.9723 40.52C81.519 39.6933 81.2923 38.7467 81.2923 37.68C81.2923 36.6133 81.519 35.6667 81.9723 34.84C82.439 34.0133 83.0857 33.3733 83.9123 32.92C84.739 32.4533 85.679 32.22 86.7323 32.22ZM89.4923 36.82C89.4657 36.0333 89.2057 35.4067 88.7123 34.94C88.219 34.4733 87.5657 34.24 86.7523 34.24C85.9923 34.24 85.3523 34.4733 84.8323 34.94C84.3257 35.3933 84.0123 36.02 83.8923 36.82H89.4923ZM109.819 32.3V46.88H107.219V41.28C106.832 41.88 106.332 42.34 105.719 42.66C105.119 42.9667 104.419 43.12 103.619 43.12C102.606 43.12 101.712 42.8933 100.939 42.44C100.179 41.9733 99.5856 41.3267 99.1589 40.5C98.7322 39.66 98.5189 38.7 98.5189 37.62C98.5189 36.5533 98.7256 35.6133 99.1389 34.8C99.5656 33.9733 100.159 33.3333 100.919 32.88C101.692 32.4267 102.572 32.2 103.559 32.2C104.372 32.2 105.086 32.36 105.699 32.68C106.312 33 106.819 33.46 107.219 34.06V32.3H109.819ZM104.179 40.94C105.072 40.94 105.799 40.64 106.359 40.04C106.932 39.4267 107.219 38.64 107.219 37.68C107.219 36.72 106.932 35.94 106.359 35.34C105.799 34.7267 105.072 34.42 104.179 34.42C103.286 34.42 102.559 34.7267 101.999 35.34C101.439 35.94 101.152 36.72 101.139 37.68C101.152 38.64 101.439 39.4267 101.999 40.04C102.559 40.64 103.286 40.94 104.179 40.94ZM123.031 32.3V43H120.411V41.02C119.691 42.4067 118.451 43.1 116.691 43.1C115.491 43.1 114.545 42.7333 113.851 42C113.158 41.2667 112.811 40.2667 112.811 39V32.3H115.431V38.24C115.431 38.9867 115.631 39.5733 116.031 40C116.445 40.4267 117.011 40.64 117.731 40.64C118.558 40.6267 119.211 40.3333 119.691 39.76C120.171 39.1867 120.411 38.46 120.411 37.58V32.3H123.031ZM130.736 32.22C132.443 32.22 133.723 32.7067 134.576 33.68C135.443 34.6533 135.876 36.02 135.876 37.78C135.876 38.1267 135.87 38.3867 135.856 38.56H127.956C128.13 39.32 128.483 39.92 129.016 40.36C129.563 40.7867 130.23 41 131.016 41C131.563 41 132.083 40.9 132.576 40.7C133.083 40.4867 133.523 40.1867 133.896 39.8L135.296 41.26C134.763 41.8467 134.11 42.3 133.336 42.62C132.576 42.94 131.73 43.1 130.796 43.1C129.703 43.1 128.736 42.8733 127.896 42.42C127.07 41.9667 126.43 41.3333 125.976 40.52C125.523 39.6933 125.296 38.7467 125.296 37.68C125.296 36.6133 125.523 35.6667 125.976 34.84C126.443 34.0133 127.09 33.3733 127.916 32.92C128.743 32.4533 129.683 32.22 130.736 32.22ZM133.496 36.82C133.47 36.0333 133.21 35.4067 132.716 34.94C132.223 34.4733 131.57 34.24 130.756 34.24C129.996 34.24 129.356 34.4733 128.836 34.94C128.33 35.3933 128.016 36.02 127.896 36.82H133.496ZM144.452 35.2C143.932 34.8933 143.392 34.6533 142.832 34.48C142.286 34.3067 141.779 34.22 141.312 34.22C140.872 34.22 140.519 34.3 140.252 34.46C139.999 34.6067 139.872 34.84 139.872 35.16C139.872 35.4933 140.032 35.7533 140.352 35.94C140.686 36.1133 141.206 36.3 141.912 36.5C142.659 36.7267 143.272 36.9533 143.752 37.18C144.232 37.3933 144.646 37.72 144.992 38.16C145.352 38.5867 145.532 39.1533 145.532 39.86C145.532 40.9 145.132 41.7 144.332 42.26C143.532 42.82 142.526 43.1 141.312 43.1C140.486 43.1 139.679 42.9733 138.892 42.72C138.106 42.4533 137.439 42.08 136.892 41.6L137.792 39.78C138.272 40.1933 138.846 40.52 139.512 40.76C140.179 40.9867 140.812 41.1 141.412 41.1C141.892 41.1 142.272 41.02 142.552 40.86C142.846 40.6867 142.992 40.4333 142.992 40.1C142.992 39.7267 142.826 39.4467 142.492 39.26C142.159 39.0733 141.619 38.8667 140.872 38.64C140.152 38.4267 139.566 38.22 139.112 38.02C138.659 37.8067 138.266 37.4933 137.932 37.08C137.599 36.6533 137.432 36.1 137.432 35.42C137.432 34.3667 137.812 33.5667 138.572 33.02C139.346 32.46 140.312 32.18 141.472 32.18C142.179 32.18 142.872 32.28 143.552 32.48C144.246 32.68 144.859 32.96 145.392 33.32L144.452 35.2ZM154.021 42.34C153.167 42.86 152.274 43.12 151.341 43.12C150.421 43.12 149.667 42.8533 149.081 42.32C148.494 41.7733 148.201 40.9733 148.201 39.92V34.64H146.701L146.681 32.74H148.201V29.8H150.781V32.74H153.841V34.64H150.781V39.46C150.781 39.9533 150.874 40.3067 151.061 40.52C151.247 40.72 151.527 40.82 151.901 40.82C152.301 40.82 152.807 40.6733 153.421 40.38L154.021 42.34ZM160.644 32.22C161.75 32.22 162.724 32.4467 163.564 32.9C164.417 33.3533 165.077 33.9933 165.544 34.82C166.024 35.6333 166.264 36.5733 166.264 37.64C166.264 38.72 166.024 39.6733 165.544 40.5C165.077 41.3267 164.417 41.9667 163.564 42.42C162.724 42.8733 161.75 43.1 160.644 43.1C159.524 43.1 158.537 42.8733 157.684 42.42C156.83 41.9667 156.164 41.3267 155.684 40.5C155.217 39.6733 154.984 38.72 154.984 37.64C154.984 36.5733 155.217 35.6333 155.684 34.82C156.164 33.9933 156.83 33.3533 157.684 32.9C158.537 32.4467 159.524 32.22 160.644 32.22ZM160.644 34.44C159.737 34.44 159.004 34.74 158.444 35.34C157.884 35.94 157.604 36.72 157.604 37.68C157.604 38.64 157.884 39.42 158.444 40.02C159.004 40.62 159.737 40.92 160.644 40.92C161.524 40.92 162.244 40.62 162.804 40.02C163.364 39.42 163.644 38.64 163.644 37.68C163.644 36.72 163.364 35.94 162.804 35.34C162.244 34.74 161.524 34.44 160.644 34.44ZM163.984 28.16C163.984 30.0267 163.397 30.96 162.224 30.96C161.93 30.96 161.644 30.9067 161.364 30.8C161.097 30.6933 160.797 30.5467 160.464 30.36C160.037 30.12 159.737 30 159.564 30C159.364 30 159.224 30.08 159.144 30.24C159.064 30.3867 159.024 30.6067 159.024 30.9H157.364C157.364 29.02 157.944 28.08 159.104 28.08C159.397 28.08 159.677 28.1333 159.944 28.24C160.224 28.3467 160.53 28.4933 160.864 28.68C161.29 28.92 161.59 29.04 161.764 29.04C161.964 29.04 162.104 28.9667 162.184 28.82C162.264 28.66 162.304 28.44 162.304 28.16H163.984ZM172.982 32.22C174.689 32.22 175.969 32.7067 176.822 33.68C177.689 34.6533 178.122 36.02 178.122 37.78C178.122 38.1267 178.116 38.3867 178.102 38.56H170.202C170.376 39.32 170.729 39.92 171.262 40.36C171.809 40.7867 172.476 41 173.262 41C173.809 41 174.329 40.9 174.822 40.7C175.329 40.4867 175.769 40.1867 176.142 39.8L177.542 41.26C177.009 41.8467 176.356 42.3 175.582 42.62C174.822 42.94 173.976 43.1 173.042 43.1C171.949 43.1 170.982 42.8733 170.142 42.42C169.316 41.9667 168.676 41.3333 168.222 40.52C167.769 39.6933 167.542 38.7467 167.542 37.68C167.542 36.6133 167.769 35.6667 168.222 34.84C168.689 34.0133 169.336 33.3733 170.162 32.92C170.989 32.4533 171.929 32.22 172.982 32.22ZM175.742 36.82C175.716 36.0333 175.456 35.4067 174.962 34.94C174.469 34.4733 173.816 34.24 173.002 34.24C172.242 34.24 171.602 34.4733 171.082 34.94C170.576 35.3933 170.262 36.02 170.142 36.82H175.742ZM186.698 35.2C186.178 34.8933 185.638 34.6533 185.078 34.48C184.532 34.3067 184.025 34.22 183.558 34.22C183.118 34.22 182.765 34.3 182.498 34.46C182.245 34.6067 182.118 34.84 182.118 35.16C182.118 35.4933 182.278 35.7533 182.598 35.94C182.932 36.1133 183.452 36.3 184.158 36.5C184.905 36.7267 185.518 36.9533 185.998 37.18C186.478 37.3933 186.892 37.72 187.238 38.16C187.598 38.5867 187.778 39.1533 187.778 39.86C187.778 40.9 187.378 41.7 186.578 42.26C185.778 42.82 184.772 43.1 183.558 43.1C182.732 43.1 181.925 42.9733 181.138 42.72C180.352 42.4533 179.685 42.08 179.138 41.6L180.038 39.78C180.518 40.1933 181.092 40.52 181.758 40.76C182.425 40.9867 183.058 41.1 183.658 41.1C184.138 41.1 184.518 41.02 184.798 40.86C185.092 40.6867 185.238 40.4333 185.238 40.1C185.238 39.7267 185.072 39.4467 184.738 39.26C184.405 39.0733 183.865 38.8667 183.118 38.64C182.398 38.4267 181.812 38.22 181.358 38.02C180.905 37.8067 180.512 37.4933 180.178 37.08C179.845 36.6533 179.678 36.1 179.678 35.42C179.678 34.3667 180.058 33.5667 180.818 33.02C181.592 32.46 182.558 32.18 183.718 32.18C184.425 32.18 185.118 32.28 185.798 32.48C186.492 32.68 187.105 32.96 187.638 33.32L186.698 35.2Z" fill="#010219"/>
<path d="M67.3809 63V54.4062H69.6514C70.1266 54.4062 70.5026 54.512 70.7793 54.7236C71.0592 54.9352 71.2594 55.2363 71.3799 55.627C71.5003 56.0176 71.5605 56.4831 71.5605 57.0234C71.5605 57.5443 71.5101 57.9984 71.4092 58.3857C71.3083 58.7699 71.1276 59.0677 70.8672 59.2793C70.61 59.4909 70.2438 59.5967 69.7686 59.5967H69.0703V63H67.3809ZM69.0703 58.0537H69.168C69.487 58.0537 69.6823 57.9642 69.7539 57.7852C69.8255 57.6061 69.8613 57.3424 69.8613 56.9941C69.8613 56.6686 69.8255 56.418 69.7539 56.2422C69.6855 56.0632 69.5212 55.9736 69.2607 55.9736H69.0703V58.0537ZM72.0781 63V55.6758H73.8555V56.4912C73.9401 56.208 74.0898 55.9867 74.3047 55.8271C74.5195 55.6676 74.7897 55.5879 75.1152 55.5879V57.0479C74.972 57.0479 74.8011 57.0641 74.6025 57.0967C74.404 57.126 74.2298 57.1683 74.0801 57.2236C73.9303 57.2757 73.8555 57.3343 73.8555 57.3994V63H72.0781ZM77.6738 63.0781C76.2155 63.0781 75.4863 62.3213 75.4863 60.8076V57.8682C75.4863 57.1781 75.68 56.6279 76.0674 56.2178C76.4548 55.8044 76.9902 55.5977 77.6738 55.5977C78.3607 55.5977 78.8978 55.8044 79.2852 56.2178C79.6725 56.6279 79.8662 57.1781 79.8662 57.8682V60.8076C79.8662 62.3213 79.1354 63.0781 77.6738 63.0781ZM77.6738 61.7305C77.8203 61.7305 77.9245 61.6784 77.9863 61.5742C78.0514 61.4668 78.084 61.3317 78.084 61.1689V57.5898C78.084 57.1634 77.9473 56.9502 77.6738 56.9502C77.4004 56.9502 77.2637 57.1634 77.2637 57.5898V61.1689C77.2637 61.3317 77.2946 61.4668 77.3564 61.5742C77.4215 61.6784 77.5273 61.7305 77.6738 61.7305ZM80.6768 63V57.3311H80.3594V55.998H80.6768V55.5C80.6768 54.7122 81.0706 54.3184 81.8584 54.3184C82.2295 54.3184 82.529 54.3656 82.7568 54.46V55.5391C82.6755 55.5228 82.6217 55.5146 82.5957 55.5146C82.4948 55.5146 82.4329 55.5521 82.4102 55.627C82.3874 55.6986 82.376 55.7913 82.376 55.9053V55.998H82.7568V57.3506H82.4102V63H80.6768ZM83.2354 62.9951V61.54H84.9834V62.9951H83.2354ZM87.9766 63V54.4062H90.5938L91.3164 59.6455L92.0342 54.4062H94.6758V63H93.1035V56.8086L92.1172 63H90.5742L89.5293 56.8086V63H87.9766ZM96.7412 63.0781C96.3343 63.0781 96.0234 62.9837 95.8086 62.7949C95.597 62.6061 95.4521 62.3473 95.374 62.0186C95.2959 61.6898 95.2568 61.3171 95.2568 60.9004C95.2568 60.4544 95.3008 60.0898 95.3887 59.8066C95.4766 59.5202 95.6263 59.2858 95.8379 59.1035C96.0527 58.9212 96.3473 58.7666 96.7217 58.6396L97.8057 58.2686V57.5166C97.8057 57.1227 97.6771 56.9258 97.4199 56.9258C97.1855 56.9258 97.0684 57.0853 97.0684 57.4043V57.8438H95.3691C95.3659 57.8177 95.3643 57.7852 95.3643 57.7461C95.3643 57.7038 95.3643 57.6566 95.3643 57.6045C95.3643 56.8753 95.5352 56.3594 95.877 56.0566C96.222 55.7507 96.7673 55.5977 97.5127 55.5977C97.9033 55.5977 98.2533 55.6676 98.5625 55.8076C98.8717 55.9443 99.1159 56.1478 99.2949 56.418C99.4772 56.6882 99.5684 57.0218 99.5684 57.4189V63H97.8301V62.1309C97.7454 62.4368 97.6055 62.6712 97.4102 62.834C97.2148 62.9967 96.9919 63.0781 96.7412 63.0781ZM97.4297 61.7207C97.5729 61.7207 97.6706 61.6605 97.7227 61.54C97.7747 61.4196 97.8008 61.2894 97.8008 61.1494V59.1084C97.5599 59.2061 97.3727 59.3298 97.2393 59.4795C97.1058 59.626 97.0391 59.8424 97.0391 60.1289V61.0713C97.0391 61.5042 97.1693 61.7207 97.4297 61.7207ZM100.242 63V55.6758H101.99V56.6084C102.055 56.3285 102.176 56.0908 102.352 55.8955C102.531 55.6969 102.778 55.5977 103.094 55.5977C103.602 55.5977 103.969 55.7539 104.197 56.0664C104.428 56.3789 104.544 56.807 104.544 57.3506V63H102.82V57.5312C102.82 57.388 102.791 57.2562 102.732 57.1357C102.674 57.012 102.573 56.9502 102.43 56.9502C102.296 56.9502 102.197 56.9974 102.132 57.0918C102.07 57.1829 102.031 57.2985 102.015 57.4385C101.998 57.5752 101.99 57.7119 101.99 57.8486V63H100.242ZM107.361 63.0781C105.903 63.0781 105.174 62.3213 105.174 60.8076V57.8682C105.174 57.1781 105.368 56.6279 105.755 56.2178C106.142 55.8044 106.678 55.5977 107.361 55.5977C108.048 55.5977 108.585 55.8044 108.973 56.2178C109.36 56.6279 109.554 57.1781 109.554 57.8682V60.8076C109.554 62.3213 108.823 63.0781 107.361 63.0781ZM107.361 61.7305C107.508 61.7305 107.612 61.6784 107.674 61.5742C107.739 61.4668 107.771 61.3317 107.771 61.1689V57.5898C107.771 57.1634 107.635 56.9502 107.361 56.9502C107.088 56.9502 106.951 57.1634 106.951 57.5898V61.1689C106.951 61.3317 106.982 61.4668 107.044 61.5742C107.109 61.6784 107.215 61.7305 107.361 61.7305ZM112.254 63.0781C111.733 63.0781 111.318 62.9805 111.009 62.7852C110.7 62.5898 110.478 62.3083 110.345 61.9404C110.211 61.5726 110.145 61.1299 110.145 60.6123V57.668C110.145 56.9876 110.34 56.4733 110.73 56.125C111.121 55.7734 111.658 55.5977 112.342 55.5977C113.748 55.5977 114.451 56.2878 114.451 57.668V58.2002C114.451 58.8447 114.445 59.2777 114.432 59.499H111.893V60.915C111.893 61.0452 111.901 61.1738 111.917 61.3008C111.933 61.4245 111.969 61.527 112.024 61.6084C112.083 61.6898 112.176 61.7305 112.303 61.7305C112.485 61.7305 112.599 61.6523 112.645 61.4961C112.69 61.3366 112.713 61.1299 112.713 60.876V60.1729H114.451V60.5879C114.451 61.1348 114.383 61.5938 114.246 61.9648C114.113 62.3327 113.885 62.611 113.562 62.7998C113.243 62.9854 112.807 63.0781 112.254 63.0781ZM111.883 58.6299H112.713V57.6436C112.713 57.3799 112.68 57.1911 112.615 57.0771C112.55 56.96 112.452 56.9014 112.322 56.9014C112.182 56.9014 112.073 56.9567 111.995 57.0674C111.92 57.1781 111.883 57.3701 111.883 57.6436V58.6299ZM115.086 63V54.4062H116.863V63H115.086ZM119.939 63V54.4062H122.557L123.279 59.6455L123.997 54.4062H126.639V63H125.066V56.8086L124.08 63H122.537L121.492 56.8086V63H119.939ZM128.704 63.0781C128.297 63.0781 127.986 62.9837 127.771 62.7949C127.56 62.6061 127.415 62.3473 127.337 62.0186C127.259 61.6898 127.22 61.3171 127.22 60.9004C127.22 60.4544 127.264 60.0898 127.352 59.8066C127.439 59.5202 127.589 59.2858 127.801 59.1035C128.016 58.9212 128.31 58.7666 128.685 58.6396L129.769 58.2686V57.5166C129.769 57.1227 129.64 56.9258 129.383 56.9258C129.148 56.9258 129.031 57.0853 129.031 57.4043V57.8438H127.332C127.329 57.8177 127.327 57.7852 127.327 57.7461C127.327 57.7038 127.327 57.6566 127.327 57.6045C127.327 56.8753 127.498 56.3594 127.84 56.0566C128.185 55.7507 128.73 55.5977 129.476 55.5977C129.866 55.5977 130.216 55.6676 130.525 55.8076C130.835 55.9443 131.079 56.1478 131.258 56.418C131.44 56.6882 131.531 57.0218 131.531 57.4189V63H129.793V62.1309C129.708 62.4368 129.568 62.6712 129.373 62.834C129.178 62.9967 128.955 63.0781 128.704 63.0781ZM129.393 61.7207C129.536 61.7207 129.633 61.6605 129.686 61.54C129.738 61.4196 129.764 61.2894 129.764 61.1494V59.1084C129.523 59.2061 129.336 59.3298 129.202 59.4795C129.069 59.626 129.002 59.8424 129.002 60.1289V61.0713C129.002 61.5042 129.132 61.7207 129.393 61.7207ZM134.407 63.0781C133.587 63.0781 133.004 62.8682 132.659 62.4482C132.317 62.0283 132.146 61.4115 132.146 60.5977V58.3418C132.146 57.7298 132.212 57.2204 132.342 56.8135C132.472 56.4066 132.7 56.1022 133.025 55.9004C133.351 55.6986 133.803 55.5977 134.383 55.5977C134.786 55.5977 135.148 55.6693 135.467 55.8125C135.789 55.9557 136.043 56.1657 136.229 56.4424C136.414 56.7191 136.507 57.0576 136.507 57.458V58.5762H134.725V57.5508C134.725 57.3815 134.7 57.2399 134.651 57.126C134.603 57.0088 134.497 56.9502 134.334 56.9502C134.048 56.9502 133.904 57.1536 133.904 57.5605V61.1104C133.904 61.2601 133.937 61.3984 134.002 61.5254C134.067 61.6491 134.174 61.7109 134.324 61.7109C134.477 61.7109 134.583 61.6507 134.642 61.5303C134.703 61.4066 134.734 61.2633 134.734 61.1006V59.8701H136.507V61.1494C136.507 61.5531 136.416 61.8997 136.233 62.1895C136.054 62.4759 135.807 62.6956 135.491 62.8486C135.175 63.0016 134.814 63.0781 134.407 63.0781ZM137.117 63V54.4062H138.914V56.4033C139.008 56.1299 139.153 55.9281 139.349 55.7979C139.544 55.6644 139.772 55.5977 140.032 55.5977C140.54 55.5977 140.91 55.7572 141.141 56.0762C141.372 56.3952 141.487 56.8232 141.487 57.3604V63H139.72V57.4727C139.72 57.3132 139.686 57.1829 139.617 57.082C139.552 56.9811 139.448 56.9307 139.305 56.9307C139.184 56.9307 139.088 56.9827 139.017 57.0869C138.948 57.1911 138.914 57.3148 138.914 57.458V63H137.117ZM143.509 63.0781C143.102 63.0781 142.791 62.9837 142.576 62.7949C142.365 62.6061 142.22 62.3473 142.142 62.0186C142.063 61.6898 142.024 61.3171 142.024 60.9004C142.024 60.4544 142.068 60.0898 142.156 59.8066C142.244 59.5202 142.394 59.2858 142.605 59.1035C142.82 58.9212 143.115 58.7666 143.489 58.6396L144.573 58.2686V57.5166C144.573 57.1227 144.445 56.9258 144.188 56.9258C143.953 56.9258 143.836 57.0853 143.836 57.4043V57.8438H142.137C142.133 57.8177 142.132 57.7852 142.132 57.7461C142.132 57.7038 142.132 57.6566 142.132 57.6045C142.132 56.8753 142.303 56.3594 142.645 56.0566C142.99 55.7507 143.535 55.5977 144.28 55.5977C144.671 55.5977 145.021 55.6676 145.33 55.8076C145.639 55.9443 145.883 56.1478 146.062 56.418C146.245 56.6882 146.336 57.0218 146.336 57.4189V63H144.598V62.1309C144.513 62.4368 144.373 62.6712 144.178 62.834C143.982 62.9967 143.759 63.0781 143.509 63.0781ZM144.197 61.7207C144.34 61.7207 144.438 61.6605 144.49 61.54C144.542 61.4196 144.568 61.2894 144.568 61.1494V59.1084C144.327 59.2061 144.14 59.3298 144.007 59.4795C143.873 59.626 143.807 59.8424 143.807 60.1289V61.0713C143.807 61.5042 143.937 61.7207 144.197 61.7207ZM148.45 63.0781C148.112 63.0781 147.843 63.0163 147.645 62.8926C147.446 62.7689 147.298 62.598 147.2 62.3799C147.103 62.1618 147.037 61.9062 147.005 61.6133C146.976 61.3203 146.961 61.0062 146.961 60.6709V57.4873C146.961 56.9242 147.06 56.4684 147.259 56.1201C147.461 55.7718 147.801 55.5977 148.279 55.5977C148.634 55.5977 148.906 55.6742 149.095 55.8271C149.287 55.9769 149.435 56.1868 149.539 56.457V54.4062H151.316V63H149.539V62.2236C149.441 62.4873 149.311 62.6956 149.148 62.8486C148.989 63.0016 148.756 63.0781 148.45 63.0781ZM149.119 61.7109C149.285 61.7109 149.396 61.6442 149.451 61.5107C149.51 61.3773 149.539 61.138 149.539 60.793V57.7119C149.539 57.5394 149.513 57.3701 149.461 57.2041C149.412 57.0348 149.301 56.9502 149.129 56.9502C148.94 56.9502 148.821 57.0299 148.772 57.1895C148.724 57.349 148.699 57.5231 148.699 57.7119V60.793C148.699 61.4049 148.839 61.7109 149.119 61.7109ZM154.119 63.0781C152.661 63.0781 151.932 62.3213 151.932 60.8076V57.8682C151.932 57.1781 152.125 56.6279 152.513 56.2178C152.9 55.8044 153.436 55.5977 154.119 55.5977C154.806 55.5977 155.343 55.8044 155.73 56.2178C156.118 56.6279 156.312 57.1781 156.312 57.8682V60.8076C156.312 62.3213 155.581 63.0781 154.119 63.0781ZM154.119 61.7305C154.266 61.7305 154.37 61.6784 154.432 61.5742C154.497 61.4668 154.529 61.3317 154.529 61.1689V57.5898C154.529 57.1634 154.393 56.9502 154.119 56.9502C153.846 56.9502 153.709 57.1634 153.709 57.5898V61.1689C153.709 61.3317 153.74 61.4668 153.802 61.5742C153.867 61.6784 153.973 61.7305 154.119 61.7305Z" fill="black"/>
</svg>
